<svg xmlns="http://www.w3.org/2000/svg" width="512" height="512" viewBox="0 0 512 512">
<g>
<path d="M 128.48 426.01 C107.32,422.90 86.64,409.47 75.58,391.66 C65.59,375.56 64.00,367.45 64.00,332.44 L 64.00 305.80 L 67.40 302.40 C71.68,298.12 76.92,297.75 81.50,301.41 L 84.50 303.81 L 85.10 332.65 C85.63,358.39 85.93,362.21 87.83,368.07 C93.36,385.09 108.10,399.00 125.50,403.64 C129.02,404.58 137.89,404.98 155.50,404.99 C169.92,405.00 182.11,405.46 184.30,406.07 C186.86,406.78 188.74,408.17 190.05,410.31 C192.40,414.18 192.51,417.12 190.43,421.13 C187.66,426.50 184.73,427.01 157.78,426.88 C144.43,426.81 131.24,426.42 128.48,426.01 ZM 305.39 426.02 C301.88,424.60 299.00,420.08 299.00,416.00 C299.00,411.21 302.00,407.37 306.80,406.04 C308.88,405.46 321.50,405.01 335.64,405.01 C357.80,405.00 361.54,404.77 367.14,403.04 C384.88,397.56 398.88,383.07 403.47,365.46 C404.65,360.93 405.00,353.77 405.00,334.26 C405.00,307.08 405.49,303.87 410.12,300.63 C413.36,298.36 419.17,298.56 422.34,301.05 C426.80,304.56 427.26,308.36 426.73,337.09 C426.19,365.81 425.49,370.55 420.03,382.59 C409.74,405.28 389.19,421.17 364.56,425.46 C354.84,427.16 309.27,427.59 305.39,426.02 ZM 225.50 339.40 C207.80,335.47 186.13,322.33 182.32,313.23 C179.50,306.48 184.59,299.00 192.01,299.00 C195.07,299.00 196.98,300.02 202.62,304.65 C215.09,314.91 229.26,319.97 245.50,319.97 C260.86,319.97 276.24,314.75 286.07,306.22 C288.51,304.11 291.61,301.62 292.97,300.69 C299.39,296.30 309.00,300.96 309.00,308.45 C309.00,313.65 306.97,316.93 300.59,322.03 C291.59,329.23 283.21,333.83 273.03,337.17 C264.31,340.04 262.18,340.33 248.00,340.63 C236.63,340.87 230.63,340.54 225.50,339.40 ZM 217.35 274.64 C213.59,271.47 212.53,267.07 214.43,262.50 C215.89,259.02 220.33,256.00 224.00,256.00 C227.69,256.00 232.11,252.98 233.58,249.47 C234.71,246.75 235.00,239.10 235.00,211.43 L 235.00 176.80 L 238.11 173.90 C242.67,169.63 248.03,169.83 252.65,174.45 L 256.09 177.89 L 255.80 215.70 L 255.50 253.50 L 252.72 259.16 C247.68,269.43 238.11,275.97 226.97,276.77 C221.04,277.19 220.15,277.00 217.35,274.64 ZM 177.39 234.02 C176.23,233.55 174.31,231.94 173.14,230.45 C171.08,227.83 171.00,226.76 171.00,202.27 L 171.00 176.80 L 174.11 173.90 C178.66,169.65 184.04,169.84 188.60,174.40 L 192.00 177.80 L 192.00 201.95 C192.00,229.00 191.58,231.02 185.47,233.58 C181.64,235.18 180.42,235.24 177.39,234.02 ZM 305.39 234.02 C304.23,233.55 302.31,231.94 301.14,230.45 C299.08,227.83 299.00,226.76 299.00,202.27 L 299.00 176.80 L 302.11 173.90 C306.66,169.65 312.04,169.84 316.60,174.40 L 320.00 177.80 L 320.00 201.95 C320.00,229.00 319.58,231.02 313.47,233.58 C309.64,235.18 308.42,235.24 305.39,234.02 ZM 67.77 189.08 L 64.50 186.16 L 64.50 156.33 C64.50,130.51 64.75,125.63 66.32,120.00 C73.68,93.78 93.84,73.62 120.00,66.34 C125.59,64.78 130.63,64.53 156.17,64.51 L 185.83 64.50 L 188.40 66.91 C191.54,69.85 192.65,75.01 191.01,78.97 C188.69,84.57 187.87,84.73 157.46,85.24 C132.52,85.66 128.80,85.93 123.00,87.82 C106.72,93.10 93.16,106.64 87.81,122.93 C85.87,128.85 85.62,132.15 85.28,156.50 C85.06,172.78 84.47,184.61 83.81,186.30 C81.45,192.32 73.03,193.79 67.77,189.08 ZM 411.00 190.72 C405.56,188.00 405.00,184.88 405.00,156.96 C405.00,137.57 404.64,130.04 403.51,125.70 C398.93,108.11 386.22,94.45 368.60,88.16 C361.77,85.73 360.40,85.61 333.06,85.20 L 304.62 84.77 L 301.81 81.96 C297.85,78.00 297.89,72.27 301.92,67.77 L 304.84 64.50 L 334.17 64.50 C367.78,64.50 370.12,64.87 386.00,72.67 C394.03,76.61 396.90,78.74 404.55,86.41 C412.15,94.04 414.36,97.03 418.28,105.00 C425.49,119.68 426.16,123.54 426.73,153.91 C427.28,183.73 426.84,186.91 421.70,190.04 C418.02,192.29 414.57,192.50 411.00,190.72 Z" fill="rgba(0,0,0,1)"/>
</g>
</svg>